<?xml version="1.0" encoding="UTF-8"?>
<svg width="30px" height="40px" viewBox="0 0 30 40" version="1.1" xmlns="http://www.w3.org/2000/svg" xmlns:xlink="http://www.w3.org/1999/xlink">
    <title>662A78DD-A9B1-4C26-A4B1-27FAD5447C1F</title>
    <g id="Page-1" stroke="none" stroke-width="1" fill="none" fill-rule="evenodd">
        <g id="Assets" transform="translate(-1035.000000, -2552.000000)" fill="#011C37" fill-rule="nonzero">
            <g id="noun_Sea_3232390" transform="translate(1035.000000, 2552.000000)">
                <g id="Group">
                    <path d="M14.6666667,0 C6.52121489,0.0583507185 -0.0399098581,6.69910366 -0.000181110094,14.8446667 C-0.000181110094,20.0713333 2.4,25.8726667 7.13333333,32.0846667 C9.25742841,34.8787418 11.6321727,37.473064 14.228,39.8353333 C14.4792421,40.054873 14.8540913,40.054873 15.1053333,39.8353333 C17.7011606,37.473064 20.0759049,34.8787418 22.2,32.0846667 C26.9333333,25.8726667 29.3335144,20.0713333 29.3335144,14.8446667 C29.3732432,6.69910366 22.8121184,0.0583507185 14.6666667,0 Z M14.6666667,38.4306667 C12.3153333,36.238 1.33333333,25.4306667 1.33333333,14.8446667 C1.33333333,7.48087 7.30287,1.51133333 14.6666667,1.51133333 C22.0304633,1.51133333 28,7.48087 28,14.8446667 C28,25.4313333 17.018,36.238 14.6666667,38.4306667 Z" id="Shape"></path>
                    <path d="M14.6666667,2.66666667 C8.03924967,2.66666667 2.66666667,8.03924967 2.66666667,14.6666667 C2.66666667,21.2940837 8.03924967,26.6666667 14.6666667,26.6666667 C21.2940837,26.6666667 26.6666667,21.2940837 26.6666667,14.6666667 C26.6589519,8.04244786 21.2908855,2.67438143 14.6666667,2.66666667 Z M14.6666667,25.3333333 C8.77562934,25.3333333 4,20.557704 4,14.6666667 C4,8.77562934 8.77562934,4 14.6666667,4 C20.557704,4 25.3333333,8.77562934 25.3333333,14.6666667 C25.3263536,20.5548105 20.5548105,25.3263536 14.6666667,25.3333333 Z" id="Shape"></path>
                    <path d="M20.66,19.6266667 C20.2487374,19.6345739 19.8469164,19.5029834 19.52,19.2533333 C18.4033478,18.4711535 16.9166522,18.4711535 15.8,19.2533333 C15.1214937,19.7510692 14.1985063,19.7510692 13.52,19.2533333 C12.4058015,18.4711218 10.9208651,18.4711218 9.80666667,19.2533333 C9.47975029,19.5029834 9.07792931,19.6345739 8.66666667,19.6266667 C8.25273686,19.6388157 7.84743204,19.506856 7.52,19.2533333 C7.14403854,18.9811721 6.71073936,18.7987304 6.25333333,18.72 C6.62207041,19.4697367 7.0858904,20.1688277 7.63333333,20.8 C7.63333333,20.8036819 7.6363181,20.8066667 7.64,20.8066667 C7.97136514,20.9142986 8.31831327,20.9661155 8.66666667,20.96 C9.33380541,20.9707996 9.98645378,20.7649464 10.5266667,20.3733333 C10.8510086,20.1236499 11.250763,19.9919661 11.66,20 C12.0712626,19.9920927 12.4730836,20.1236832 12.8,20.3733333 C13.9166522,21.1555132 15.4033478,21.1555132 16.52,20.3733333 C17.1985063,19.8755975 18.1214937,19.8755975 18.8,20.3733333 C19.3402129,20.7649464 19.9928613,20.9707996 20.66,20.96 C21.0109239,20.9641977 21.3601118,20.9101299 21.6933333,20.8 C22.247285,20.1724067 22.7137415,19.4727221 23.08,18.72 C22.6185938,18.7990471 22.1810236,18.981368 21.8,19.2533333 C21.4745892,19.5058317 21.0717336,19.6377611 20.66,19.6266667 L20.66,19.6266667 Z" id="Path"></path>
                    <path d="M23.6666667,16 C22.9974958,15.9893869 22.3427879,16.1951523 21.8,16.5866667 C21.4745892,16.8391651 21.0717336,16.9710944 20.66,16.96 C20.2487374,16.9679073 19.8469164,16.8363168 19.52,16.5866667 C18.4033478,15.8044868 16.9166522,15.8044868 15.8,16.5866667 C15.1214937,17.0844025 14.1985063,17.0844025 13.52,16.5866667 C12.4058015,15.8044551 10.9208651,15.8044551 9.80666667,16.5866667 C9.1281604,17.0844025 8.20517293,17.0844025 7.52666667,16.5866667 C6.98645378,16.1950536 6.33380541,15.9892004 5.66666667,16 C5.58666667,16 5.50666667,16 5.42666667,16.0066667 C5.49193204,16.4560328 5.5922378,16.8996072 5.72666667,17.3333333 C6.1173862,17.3387464 6.49601444,17.4696303 6.80666667,17.7066667 C7.92331883,18.4888465 9.4100145,18.4888465 10.5266667,17.7066667 C10.8510086,17.4569832 11.250763,17.3252994 11.66,17.3333333 C12.0712626,17.3254261 12.4730836,17.4570166 12.8,17.7066667 C13.9166522,18.4888465 15.4033478,18.4888465 16.52,17.7066667 C17.1985063,17.2089308 18.1214937,17.2089308 18.8,17.7066667 C19.9166522,18.4888465 21.4033478,18.4888465 22.52,17.7066667 C22.8326571,17.4686161 23.2137246,17.3376972 23.6066667,17.3333333 C23.7410955,16.8996072 23.8414013,16.4560328 23.9066667,16.0066667 C23.8266667,16 23.7466667,16 23.6666667,16 Z" id="Path"></path>
                    <path d="M17.66,21.3333333 C16.9928613,21.3225337 16.3402129,21.528387 15.8,21.92 C15.1214937,22.4177358 14.1985063,22.4177358 13.52,21.92 C12.4057786,21.1402901 10.9236806,21.1376292 9.80666667,21.9133333 C9.62417527,22.0466952 9.42164954,22.1502084 9.20666667,22.22 C9.62380601,22.5300478 10.0677903,22.8022392 10.5333333,23.0333333 C10.8559478,22.7859418 11.2535765,22.656536 11.66,22.6666667 C12.0712626,22.6587594 12.4730836,22.7903499 12.8,23.04 C13.9166522,23.8221798 15.4033478,23.8221798 16.52,23.04 C16.8469164,22.7903499 17.2487374,22.6587594 17.66,22.6666667 C18.069237,22.6586327 18.4689914,22.7903165 18.7933333,23.04 L18.8,23.04 C19.2662997,22.8064584 19.7122924,22.5344029 20.1333333,22.2266667 C19.9130164,22.1598678 19.7056292,22.0561743 19.52,21.92 C18.9797871,21.528387 18.3271387,21.3225337 17.66,21.3333333 L17.66,21.3333333 Z" id="Path"></path>
                    <path d="M14.6666667,12 C15.7712362,12 16.6666667,11.1045695 16.6666667,10 C16.6666667,8.8954305 15.7712362,8 14.6666667,8 C13.5620972,8 12.6666667,8.8954305 12.6666667,10 C12.6666667,11.1045695 13.5620972,12 14.6666667,12 Z M14.6666667,9.33333333 C15.0348565,9.33333333 15.3333333,9.63181017 15.3333333,10 C15.3333333,10.3681898 15.0348565,10.6666667 14.6666667,10.6666667 C14.2984768,10.6666667 14,10.3681898 14,10 C14,9.63181017 14.2984768,9.33333333 14.6666667,9.33333333 Z" id="Shape"></path>
                    <rect id="Rectangle" x="10" y="9.33333333" width="1.33333333" height="1.33333333"></rect>
                    <rect id="Rectangle" x="18" y="9.33333333" width="1.33333333" height="1.33333333"></rect>
                    <polygon id="Rectangle" transform="translate(11.837943, 12.828070) rotate(-45.020000) translate(-11.837943, -12.828070) " points="11.1712767 12.1614036 12.50461 12.1614036 12.50461 13.4947369 11.1712767 13.4947369"></polygon>
                    <polygon id="Rectangle" transform="translate(17.494484, 7.171669) rotate(-45.020000) translate(-17.494484, -7.171669) " points="16.8278176 6.50500266 18.1611509 6.50500266 18.1611509 7.83833599 16.8278176 7.83833599"></polygon>
                    <rect id="Rectangle" x="14" y="13.3333333" width="1.33333333" height="1.33333333"></rect>
                    <rect id="Rectangle" x="14" y="5.33333333" width="1.33333333" height="1.33333333"></rect>
                    <polygon id="Rectangle" transform="translate(17.494684, 12.828392) rotate(-44.980000) translate(-17.494684, -12.828392) " points="16.8280174 12.161725 18.1613508 12.161725 18.1613508 13.4950583 16.8280174 13.4950583"></polygon>
                    <polygon id="Rectangle" transform="translate(11.837617, 7.171599) rotate(-44.980000) translate(-11.837617, -7.171599) " points="11.1709499 6.50493258 12.5042832 6.50493258 12.5042832 7.83826591 11.1709499 7.83826591"></polygon>
                </g>
            </g>
        </g>
    </g>
</svg>