<?xml version="1.0" encoding="UTF-8"?>
<svg width="52px" height="40px" viewBox="0 0 52 40" version="1.1" xmlns="http://www.w3.org/2000/svg" xmlns:xlink="http://www.w3.org/1999/xlink">
    <title>805180D3-3A43-417F-A8FB-9F72E7156E78</title>
    <g id="Page-1" stroke="none" stroke-width="1" fill="none" fill-rule="evenodd">
        <g id="Assets" transform="translate(-1024.000000, -2640.000000)" fill="#011C37" fill-rule="nonzero">
            <g id="noun_beach_842465" transform="translate(1024.000000, 2640.000000)">
                <path d="M51.2121212,38.7878788 L46,38.7878788 L44.7030303,34.7636364 L51.5636364,29.969697 C51.7411866,29.8451953 51.8388289,29.6354292 51.8197824,29.4194154 C51.8007359,29.2034016 51.6678942,29.0139578 51.4712975,28.9224457 C51.2747008,28.8309335 51.0442168,28.8512559 50.8666667,28.9757576 L43.7939394,33.9393939 L26.9151515,33.9393939 C26.5804335,33.9393939 26.3090909,34.2107365 26.3090909,34.5454545 C26.3090909,34.8801726 26.5804335,35.1515152 26.9151515,35.1515152 L30.630303,35.1515152 L29.4181818,38.7878788 L19.7212121,38.7878788 L29.0909091,17.4 C30.2975568,18.0734897 31.2334958,19.1443582 31.7393939,20.430303 C31.7996064,20.5841355 31.9200046,20.7067227 32.0727273,20.769697 C32.2561017,20.8493959 32.4669854,20.8335229 32.6363636,20.7272727 C35.7289688,19.6215176 39.1395858,21.1803497 40.3272727,24.2424242 C40.3532955,24.3068289 40.3901965,24.3662806 40.4363636,24.4181818 L40.4787879,24.4606061 C40.5189812,24.4967172 40.563823,24.5272912 40.6121212,24.5515152 C40.6812137,24.5810632 40.7551989,24.5975044 40.830303,24.6 C40.8985415,24.5992253 40.9661591,24.5869312 41.030303,24.5636364 C41.0828525,24.5403823 41.1318278,24.5097728 41.1757576,24.4727273 L41.2181818,24.4363636 C41.2686681,24.3854122 41.3097088,24.3259031 41.3393939,24.2606061 C44.5342121,17.0871319 41.498743,8.67072565 34.4606061,5.18787879 L36.1454545,1.35757576 C36.2588219,1.05585997 36.116207,0.718191904 35.8208822,0.589088135 C35.5255573,0.459984366 35.1808454,0.584613412 35.0363636,0.872727273 L33.3333333,4.69090909 C26.0036568,1.81431393 17.7104016,5.23862574 14.5454545,12.4484848 C14.4137058,12.7531209 14.5514988,13.1070597 14.8545455,13.2424242 C14.9949547,13.2966042 15.1504999,13.2966042 15.2909091,13.2424242 C18.3903595,12.0391873 21.8786006,13.5744474 23.0848485,16.6727273 C23.1435963,16.8219629 23.2591024,16.9418277 23.4060606,17.0060606 C23.4363153,17.0084823 23.466715,17.0084823 23.4969697,17.0060606 C23.5432797,17.0114218 23.5900536,17.0114218 23.6363636,17.0060606 C23.7090427,17.0047545 23.7808941,16.9903842 23.8484848,16.9636364 C25.1416268,16.4566143 26.5710016,16.4158974 27.8909091,16.8484848 L18.369697,38.7878788 L12.2,38.7878788 C11.865282,38.7878788 11.5939394,39.0592214 11.5939394,39.3939394 C11.5939394,39.7286574 11.865282,40 12.2,40 L51.2121212,40 C51.5468392,40 51.8181818,39.7286574 51.8181818,39.3939394 C51.8181818,39.0592214 51.5468392,38.7878788 51.2121212,38.7878788 Z M40.8121212,22.5212121 C39.2176787,20.0437049 36.2860293,18.7729247 33.3878788,19.3030303 C35.2060606,14.8242424 36.2181818,10.030303 35.5515152,7.18181818 C37.8267496,8.71217715 39.5748313,10.9068027 40.5575758,13.4666667 C41.6964522,16.3626661 41.7865002,19.5658039 40.8121212,22.5212121 Z M20.4606061,12.2545455 C19.1535902,11.6767015 17.7039952,11.5015684 16.2969697,11.7515152 C19.2559535,6.51791734 25.3221718,3.87537969 31.169697,5.27272727 C30.1779884,5.87381583 29.288103,6.62868411 28.5333333,7.50909091 C26.5691378,9.78946407 24.9368561,12.3358234 23.6848485,15.0727273 C22.9219846,13.8218812 21.7948028,12.8342753 20.4545455,12.2424242 L20.4606061,12.2545455 Z M24.8484848,15.5272727 C26.0392961,12.9216719 27.5897592,10.4960131 29.4545455,8.32121212 C31.0969697,6.5030303 32.5878788,5.64848485 33.4484848,6.03030303 L33.4848485,6.03030303 C35.1393939,6.78181818 34.9939394,12.0909091 32.2727273,18.8 C30.7032643,16.2898432 27.7602049,14.9924946 24.8484848,15.5272727 Z M31.9090909,35.1515152 L43.5454545,35.1515152 L44.7272727,38.7878788 L30.6909091,38.7878788 L31.9090909,35.1515152 Z" id="Shape"></path>
                <path d="M4.04242424,31.1454545 C5.18132077,31.1473242 6.28672838,30.7603246 7.17575758,30.0484848 C9.01029265,31.5063145 11.6078892,31.5063145 13.4424242,30.0484848 C14.3306385,30.7568475 15.4336084,31.1416044 16.569697,31.1393939 C17.9074466,31.1424141 19.1907553,30.6098847 20.1333333,29.6606061 C20.2859832,29.5068736 20.3450222,29.2833812 20.2882109,29.0743163 C20.2313996,28.8652515 20.067369,28.702376 19.8579078,28.6470436 C19.6484467,28.5917112 19.4253771,28.6523281 19.2727273,28.8060606 C17.7774453,30.2987262 15.355888,30.2987262 13.8606061,28.8060606 C13.6242197,28.5710766 13.2424469,28.5710766 13.0060606,28.8060606 C11.5107786,30.2987262 9.08922138,30.2987262 7.59393939,28.8060606 C7.35755306,28.5710766 6.97578028,28.5710766 6.73939394,28.8060606 C6.02418758,29.5256527 5.05092198,29.9293616 4.03636364,29.9272727 C3.02268009,29.9309657 2.04953839,29.5294902 1.33333333,28.8121212 C1.08898917,28.576145 0.699612575,28.5829286 0.463636364,28.8272727 C0.227660152,29.0716169 0.234443717,29.4609935 0.478787879,29.6969697 C1.42088585,30.64253 2.70158878,31.1727018 4.03636364,31.1697097 L4.04242424,31.1454545 Z" id="Path"></path>
                <path d="M16.1515152,33.4363636 C14.6562332,34.9290293 12.2346759,34.9290293 10.7393939,33.4363636 C10.5030076,33.2013796 10.1212348,33.2013796 9.88484848,33.4363636 C9.16616524,34.1530076 8.19066459,34.5523736 7.17575758,34.5454545 C6.16207403,34.5491475 5.18893233,34.147672 4.47272727,33.430303 C4.2300567,33.1993476 3.84610696,33.2088446 3.61515152,33.4515152 C3.38419608,33.6941857 3.39369307,34.0781355 3.63636364,34.3090909 C4.57797707,35.2412972 5.85075825,35.7621785 7.17575758,35.7575758 C8.31046991,35.7637144 9.41344145,35.3832319 10.3030303,34.6787879 C11.1961051,35.3854092 12.3036418,35.7659913 13.4424242,35.7575758 C14.7801739,35.7605959 16.0634826,35.2280665 17.0060606,34.2787879 C17.2420368,34.0411381 17.2406801,33.6571883 17.0030303,33.4212121 C16.7653805,33.1852359 16.3814308,33.1865926 16.1454545,33.4242424 L16.1515152,33.4363636 Z" id="Path"></path>
            </g>
        </g>
    </g>
</svg>