<?xml version="1.0" encoding="UTF-8"?>
<svg width="38px" height="40px" viewBox="0 0 38 40" version="1.1" xmlns="http://www.w3.org/2000/svg" xmlns:xlink="http://www.w3.org/1999/xlink">
    <title>FCEA0146-E28D-4887-825C-78296209176A</title>
    <g id="Page-1" stroke="none" stroke-width="1" fill="none" fill-rule="evenodd">
        <g id="Assets" transform="translate(-1031.000000, -2731.000000)" fill="#011C37" fill-rule="nonzero">
            <g id="noun_Shopping-Bag_33117" transform="translate(1031.000000, 2731.000000)">
                <path d="M33.332,10.196 L26.607,10.196 L26.607,6.0735 C26.607,4.11 25.548,0.349 21.5125,0.171 L20.05,0.171 C19.9715,0.171 19.8965,0.187 19.8285,0.216 C19.269,0.2815 18.7655,0.412 18.3255,0.607 C17.769,0.3615 17.1235,0.204 16.374,0.1705 L14.9115,0.1705 C14.833,0.1705 14.758,0.1865 14.69,0.2155 C11.046,0.6415 10.058,4.184 10.058,6.0725 L10.058,10.195 L2.8845,10.195 L0.1375,39.51 L37.061,39.51 L33.332,10.196 Z M20.309,1.303 L21.4875,1.302 C25.413,1.4755 25.474,5.8865 25.475,6.0735 L25.475,10.196 L21.4685,10.196 L21.4685,6.0735 C21.4685,4.783 21.004,2.7205 19.544,1.4045 C19.7825,1.353 20.034,1.3155 20.309,1.303 Z M18.333,1.8965 C20.2895,3.1435 20.336,5.9255 20.337,6.073 L20.337,10.1955 L16.3295,10.1955 L16.3295,6.074 C16.33,5.926 16.376,3.1435 18.333,1.8965 Z M11.1905,6.0745 C11.1915,5.8865 11.253,1.482 15.1705,1.303 L16.349,1.302 C16.625,1.314 16.877,1.352 17.116,1.403 C15.662,2.7185 15.197,4.7825 15.197,6.0735 L15.197,10.196 L11.1905,10.196 L11.1905,6.0745 Z M1.38,38.378 L3.915,11.328 L10.0585,11.328 L10.0585,14.619 C10.0585,14.932 10.3115,15.185 10.6245,15.185 C10.9375,15.185 11.1905,14.932 11.1905,14.619 L11.1905,11.328 L20.3365,11.328 L20.3365,14.619 C20.3365,14.932 20.5895,15.185 20.9025,15.185 C21.2155,15.185 21.4685,14.932 21.4685,14.619 L21.4685,11.328 L28.061,11.328 L26.7935,24.853 L25.526,38.378 L1.38,38.378 Z M27.93,24.853 L29.1975,11.328 L32.335,11.328 L35.7765,38.378 L26.6625,38.378 L27.93,24.853 Z" id="Shape"></path>
            </g>
        </g>
    </g>
</svg>