<?xml version="1.0" encoding="UTF-8"?>
<svg width="40px" height="40px" viewBox="0 0 40 40" version="1.1" xmlns="http://www.w3.org/2000/svg" xmlns:xlink="http://www.w3.org/1999/xlink">
    <title>243F490C-387E-476C-9F31-857028254E7F</title>
    <g id="Page-1" stroke="none" stroke-width="1" fill="none" fill-rule="evenodd">
        <g id="Assets" transform="translate(-1029.000000, -2822.000000)" fill="#011C37" fill-rule="nonzero">
            <g id="noun_buildings_1936887" transform="translate(1029.000000, 2822.000000)">
                <path d="M7.9321289,30.0134277 C8.2084961,30.0134277 8.4321289,29.7895508 8.4321289,29.5134277 L8.4321289,27.2050781 C8.4321289,26.9289551 8.2084961,26.7050781 7.9321289,26.7050781 C7.6557617,26.7050781 7.4321289,26.9289551 7.4321289,27.2050781 L7.4321289,29.5134277 C7.4321289,29.7895508 7.6557617,30.0134277 7.9321289,30.0134277 Z" id="Path"></path>
                <path d="M11.1289062,30.0134277 C11.4052734,30.0134277 11.6289062,29.7895508 11.6289062,29.5134277 L11.6289062,27.2050781 C11.6289062,26.9289551 11.4052734,26.7050781 11.1289062,26.7050781 C10.8525391,26.7050781 10.6289062,26.9289551 10.6289062,27.2050781 L10.6289062,29.5134277 C10.6289062,29.7895508 10.8525391,30.0134277 11.1289062,30.0134277 Z" id="Path"></path>
                <path d="M9.5307617,17.5351562 C9.2543945,17.5351562 9.0307617,17.7590332 9.0307617,18.0351562 L9.0307617,20.125 C9.0307617,20.401123 9.2543945,20.625 9.5307617,20.625 C9.8071289,20.625 10.0307617,20.401123 10.0307617,20.125 L10.0307617,18.0351562 C10.0307617,17.7590332 9.8071289,17.5351562 9.5307617,17.5351562 Z" id="Path"></path>
                <path d="M12.727539,17.5351562 C12.4511718,17.5351562 12.227539,17.7590332 12.227539,18.0351562 L12.227539,20.125 C12.227539,20.401123 12.4511718,20.625 12.727539,20.625 C13.0039062,20.625 13.227539,20.401123 13.227539,20.125 L13.227539,18.0351562 C13.227539,17.7590332 13.0039062,17.5351562 12.727539,17.5351562 Z" id="Path"></path>
                <path d="M9.5307617,13.3300781 C9.2543945,13.3300781 9.0307617,13.5539551 9.0307617,13.8300781 L9.0307617,15.9199219 C9.0307617,16.1960449 9.2543945,16.4199219 9.5307617,16.4199219 C9.8071289,16.4199219 10.0307617,16.1960449 10.0307617,15.9199219 L10.0307617,13.8300781 C10.0307617,13.5539551 9.8071289,13.3300781 9.5307617,13.3300781 Z" id="Path"></path>
                <path d="M12.727539,13.3300781 C12.4511718,13.3300781 12.227539,13.5539551 12.227539,13.8300781 L12.227539,15.9199219 C12.227539,16.1960449 12.4511718,16.4199219 12.727539,16.4199219 C13.0039062,16.4199219 13.227539,16.1960449 13.227539,15.9199219 L13.227539,13.8300781 C13.227539,13.5539551 13.0039062,13.3300781 12.727539,13.3300781 Z" id="Path"></path>
                <path d="M9.5307617,9.125 C9.2543945,9.125 9.0307617,9.34887695 9.0307617,9.625 L9.0307617,11.7148438 C9.0307617,11.9909668 9.2543945,12.2148438 9.5307617,12.2148438 C9.8071289,12.2148438 10.0307617,11.9909668 10.0307617,11.7148438 L10.0307617,9.625 C10.0307617,9.34887695 9.8071289,9.125 9.5307617,9.125 Z" id="Path"></path>
                <path d="M12.727539,9.125 C12.4511718,9.125 12.227539,9.34887695 12.227539,9.625 L12.227539,11.7148438 C12.227539,11.9909668 12.4511718,12.2148438 12.727539,12.2148438 C13.0039062,12.2148438 13.227539,11.9909668 13.227539,11.7148438 L13.227539,9.625 C13.227539,9.34887695 13.0039062,9.125 12.727539,9.125 Z" id="Path"></path>
                <path d="M14.3261719,30.0134277 C14.6025391,30.0134277 14.8261719,29.7895508 14.8261719,29.5134277 L14.8261719,27.2050781 C14.8261719,26.9289551 14.6025391,26.7050781 14.3261719,26.7050781 C14.0498047,26.7050781 13.8261719,26.9289551 13.8261719,27.2050781 L13.8261719,29.5134277 C13.8261719,29.7895508 14.0498047,30.0134277 14.3261719,30.0134277 Z" id="Path"></path>
                <path d="M0.5,40 L39.5,40 C39.7763672,40 40,39.7761231 40,39.5 C40,39.2238769 39.7763672,39 39.5,39 L36.3334961,39 L36.3334961,23.361084 C36.3334961,23.084961 36.1098633,22.861084 35.8334961,22.861084 L34.8642578,22.861084 L34.8642578,10.1049805 C34.8642578,9.82885745 34.640625,9.6049805 34.3642578,9.6049805 L23.3774414,9.6049805 C23.1010742,9.6049805 22.8774414,9.82885745 22.8774414,10.1049805 L22.8774414,22.861084 L21.9086914,22.861084 C21.6323242,22.861084 21.4086914,23.084961 21.4086914,23.361084 L21.4086914,39 L18.5913086,39 L18.5913086,23.361084 C18.5913086,23.084961 18.3676758,22.861084 18.0913086,22.861084 L17.1220703,22.861084 L17.1220703,6.6049805 C17.1220703,6.57974245 17.1113281,6.55804445 17.107727,6.5338135 C17.1023864,6.49688725 17.0994873,6.4603577 17.0857849,6.42507935 C17.0719909,6.38952635 17.0493469,6.36035155 17.0281677,6.32925415 C17.0146179,6.3092041 17.0080566,6.28622435 16.9912109,6.26782225 L11.4169922,0.1628418 C11.3222656,0.05908205 11.1884766,0 11.0478516,0 C11.046875,0 11.0454102,0 11.0439453,0 C10.9023438,0.00097655 10.7675781,0.06225585 10.6738281,0.1682129 L5.26171875,6.27319335 C5.2454529,6.29156495 5.2393799,6.31433105 5.22628785,6.334259 C5.20584105,6.36505125 5.18447875,6.3941345 5.1712036,6.4292297 C5.15863035,6.46249385 5.1557922,6.4966125 5.15060425,6.531311 C5.1467285,6.55636595 5.1357422,6.5788574 5.1357422,6.60498045 L5.1357422,22.8610839 L4.1665039,22.8610839 C3.8901367,22.8610839 3.6665039,23.0849609 3.6665039,23.3610839 L3.6665039,39 L0.5,39 C0.2236328,39 0,39.2238769 0,39.5 C0,39.7761231 0.2236328,40 0.5,40 Z M14.0361328,39 L11.6289062,39 L11.6289062,33.1994629 L14.0361328,33.1994629 L14.0361328,39 Z M10.6289062,39 L8.4321289,39 L8.4321289,33.1994629 L10.6289062,33.1994629 L10.6289062,39 Z M31.777832,39 L29.4760742,39 L29.4760742,33.1994629 L31.777832,33.1994629 L31.777832,39 Z M28.4760742,39 L26.1738281,39 L26.1738281,33.1994629 L28.4760742,33.1994629 L28.4760742,39 Z M23.8774414,10.6049804 L33.8642578,10.6049804 L33.8642578,22.861084 L23.8774414,22.861084 L23.8774414,10.6049804 Z M22.4086914,23.861084 L35.3334961,23.861084 L35.3334961,39 L32.7778321,39 L32.7778321,32.6994629 C32.7778321,32.4233398 32.5541993,32.1994629 32.2778321,32.1994629 L25.6738281,32.1994629 C25.3974609,32.1994629 25.1738281,32.4233398 25.1738281,32.6994629 L25.1738281,39 L22.4086914,39 L22.4086914,23.861084 L22.4086914,23.861084 Z M11.0532226,1.2475586 L15.4885254,6.1049805 L6.74713135,6.1049805 L11.0532226,1.2475586 Z M6.1357422,7.10498045 L16.1220703,7.10498045 L16.1220703,22.861084 L6.1357422,22.861084 L6.1357422,7.10498045 Z M4.6665039,23.861084 L17.5913086,23.861084 L17.5913086,39 L15.0361328,39 L15.0361328,32.6994629 C15.0361328,32.4233398 14.8125,32.1994629 14.5361328,32.1994629 L7.9321289,32.1994629 C7.6557617,32.1994629 7.4321289,32.4233398 7.4321289,32.6994629 L7.4321289,39 L4.6665039,39 L4.6665039,23.861084 Z" id="Shape"></path>
                <path d="M25.6738281,30.0134277 C25.9501953,30.0134277 26.1738281,29.7895508 26.1738281,29.5134277 L26.1738281,27.2050781 C26.1738281,26.9289551 25.9501953,26.7050781 25.6738281,26.7050781 C25.3974609,26.7050781 25.1738281,26.9289551 25.1738281,27.2050781 L25.1738281,29.5134277 C25.1738281,29.7895508 25.397461,30.0134277 25.6738281,30.0134277 Z" id="Path"></path>
                <path d="M28.8710938,30.0134277 C29.147461,30.0134277 29.3710938,29.7895508 29.3710938,29.5134277 L29.3710938,27.2050781 C29.3710938,26.9289551 29.147461,26.7050781 28.8710938,26.7050781 C28.5947265,26.7050781 28.3710938,26.9289551 28.3710938,27.2050781 L28.3710938,29.5134277 C28.3710938,29.7895508 28.5947265,30.0134277 28.8710938,30.0134277 Z" id="Path"></path>
                <path d="M27.272461,17.5351562 C26.9960938,17.5351562 26.772461,17.7590332 26.772461,18.0351562 L26.772461,20.125 C26.772461,20.401123 26.9960938,20.625 27.272461,20.625 C27.5488282,20.625 27.772461,20.401123 27.772461,20.125 L27.772461,18.0351562 C27.772461,17.7590332 27.5488281,17.5351562 27.272461,17.5351562 Z" id="Path"></path>
                <path d="M30.4692383,17.5351562 C30.1928711,17.5351562 29.9692383,17.7590332 29.9692383,18.0351562 L29.9692383,20.125 C29.9692383,20.401123 30.1928711,20.625 30.4692383,20.625 C30.7456055,20.625 30.9692383,20.401123 30.9692383,20.125 L30.9692383,18.0351562 C30.9692383,17.7590332 30.7456054,17.5351562 30.4692383,17.5351562 Z" id="Path"></path>
                <path d="M27.272461,13.3300781 C26.9960938,13.3300781 26.772461,13.5539551 26.772461,13.8300781 L26.772461,15.9199219 C26.772461,16.1960449 26.9960938,16.4199219 27.272461,16.4199219 C27.5488282,16.4199219 27.772461,16.1960449 27.772461,15.9199219 L27.772461,13.8300781 C27.772461,13.5539551 27.5488281,13.3300781 27.272461,13.3300781 Z" id="Path"></path>
                <path d="M30.4692383,13.3300781 C30.1928711,13.3300781 29.9692383,13.5539551 29.9692383,13.8300781 L29.9692383,15.9199219 C29.9692383,16.1960449 30.1928711,16.4199219 30.4692383,16.4199219 C30.7456055,16.4199219 30.9692383,16.1960449 30.9692383,15.9199219 L30.9692383,13.8300781 C30.9692383,13.5539551 30.7456054,13.3300781 30.4692383,13.3300781 Z" id="Path"></path>
                <path d="M32.0678711,30.0134277 C32.3442383,30.0134277 32.5678711,29.7895508 32.5678711,29.5134277 L32.5678711,27.2050781 C32.5678711,26.9289551 32.3442383,26.7050781 32.0678711,26.7050781 C31.7915039,26.7050781 31.5678711,26.9289551 31.5678711,27.2050781 L31.5678711,29.5134277 C31.5678711,29.7895508 31.7915039,30.0134277 32.0678711,30.0134277 Z" id="Path"></path>
            </g>
        </g>
    </g>
</svg>