<?xml version="1.0" encoding="UTF-8"?>
<svg width="45px" height="45px" viewBox="0 0 45 45" version="1.1" xmlns="http://www.w3.org/2000/svg" xmlns:xlink="http://www.w3.org/1999/xlink">
    <title>DB5AC0B2-3D59-4449-9726-C348CBEAF152</title>
    <g id="Page-1" stroke="none" stroke-width="1" fill="none" fill-rule="evenodd">
        <g id="Assets" transform="translate(-1028.000000, -2916.000000)" fill="#011C37" fill-rule="nonzero">
            <g id="noun_beach_3241922" transform="translate(1028.000000, 2916.000000)">
                <g id="Group">
                    <path d="M40.9676538,43.6077069 C39.8460462,43.6077069 39.3028615,43.1212915 38.6741077,42.5580992 C37.9858154,41.9418762 37.2060069,41.2434762 35.6874923,41.2434762 C32.8428692,41.2434762 32.7413769,43.6077069 30.4076077,43.6077069 C28.0945454,43.6077069 27.9654231,41.2434762 25.1311154,41.2434762 C22.2871846,41.2434762 22.1861769,43.6077069 19.8529615,43.6077069 C17.5398923,43.6077069 17.4107769,41.2434762 14.5764692,41.2434762 C11.7355154,41.2434762 11.6325,43.6077069 9.30170769,43.6077069 C6.97756154,43.6077069 6.87087692,41.2434762 4.0266,41.2434762 C3.73991538,41.2434762 3.50736923,41.4760223 3.50736923,41.7627069 C3.50736923,42.0493915 3.73991538,42.2819377 4.0266,42.2819377 C5.14682308,42.2819377 5.68938462,42.7683531 6.31779231,43.3315454 C7.00504615,43.9478446 7.78423846,44.6461685 9.30170769,44.6461685 C12.1426615,44.6461685 12.2457462,42.2819377 14.5764692,42.2819377 C15.6967615,42.2819377 16.2396692,42.7683531 16.8680769,43.3315454 C17.5556769,43.9478446 18.3351462,44.6461685 19.8529615,44.6461685 C22.6969615,44.6461685 22.7979,42.2819377 25.1311154,42.2819377 C27.4622538,42.2819377 27.5568923,44.6461685 30.4076077,44.6461685 C33.2606769,44.6461685 33.3468,42.2819377 35.6874923,42.2819377 C36.8091,42.2819377 37.3523538,42.7683531 37.9811077,43.3315454 C38.6693308,43.9478446 39.4492154,44.6461685 40.9676538,44.6461685 C41.2543385,44.6461685 41.4868846,44.4136223 41.4868846,44.1269377 C41.4868846,43.8403223 41.2543385,43.6077069 40.9676538,43.6077069 Z" id="Path"></path>
                    <path d="M44.1346154,37.8282531 C42.7846154,37.8282531 42.1338462,37.2467146 41.3861538,36.5751762 C40.23,35.5367146 39.24,34.9205608 37.4538462,35.0797915 C37.0107692,33.0167146 35.4323077,31.2028685 33.0992308,29.8459454 C35.3907692,24.2105608 36.0346154,17.9936377 34.9753846,11.5067146 C37.0523077,13.3967146 38.61,16.2559454 38.8384615,19.2120992 C38.8661538,19.55133 39.2538462,19.8144069 39.6,19.6274838 C41.9676923,18.3536377 42.9576923,14.4144069 40.1676923,10.7451762 C41.7876923,11.6936377 41.7530769,12.2336377 42.2792308,12.1297915 C42.4453846,12.0951762 42.5838462,11.9774838 42.6530769,11.81133 C43.3453846,9.90748385 42.1546154,7.89979154 40.3061538,6.85440692 C41.58,6.77825308 42.8261538,6.90286846 43.9892308,7.23517615 C44.1553846,7.28363769 44.3353846,7.24902231 44.4669231,7.13825308 C44.6953777,6.94440692 44.6746154,6.66748385 44.5915385,6.37671462 C43.6776854,2.40286846 37.5438462,1.41979154 34.0269231,4.52825308 C31.5969231,-0.359439231 25.1515385,-0.802516154 23.4,2.40286846 C23.1923077,2.72825308 23.4138462,3.15056077 23.7807692,3.19209923 C24.9853846,3.33056077 26.1830769,3.69056077 27.3253846,4.25133 C23.1576923,4.73594538 22.5069231,8.96594538 23.9676923,8.41902231 C24.5976923,8.16286846 25.2692308,7.98979154 25.9684615,7.89979154 C23.0330769,9.41594538 21.0392308,13.3067146 22.8807692,16.0620992 C22.9361538,16.1520992 22.9984615,16.2351762 23.0607692,16.3182531 C23.1715385,16.4497915 23.3376923,16.5190223 23.5176923,16.4982531 C23.6907692,16.4844069 23.8430769,16.3736377 23.9192308,16.22133 C25.4423077,13.2790223 28.3846154,11.1120992 31.3476923,10.3228685 C31.5623077,16.13133 29.7346154,22.2167146 26.1761538,27.5751762 C16.6292308,26.2251762 5.63538462,30.8428685 7.63615385,37.7867146 C4.45153846,38.3197915 4.35461538,35.0590223 0.865384615,35.0590223 C0.574615385,35.0590223 0.346153846,35.2874838 0.346153846,35.5782531 C0.346153846,35.8620992 0.574615385,36.0974838 0.865384615,36.0974838 C1.70307692,36.0974838 2.27076923,36.3190223 2.76230769,36.6582531 C3.06,36.8590223 3.33,37.10133 3.60692308,37.3505608 C5.61461538,39.2128685 7.95461538,39.1920992 9.33923077,38.2367146 C9.33923077,38.2367146 9.34615385,38.2367146 9.35307692,38.2297915 C10.0038462,37.8836377 11.0076923,36.74133 11.7069231,36.4297915 C11.7138462,36.4297915 11.7207692,36.4228685 11.7276923,36.4228685 C11.7484615,36.4090223 11.7692308,36.4020992 11.7830769,36.3882531 L11.79,36.3882531 C12.51,36.0628685 13.5,36.0282531 14.0192308,36.1805608 C14.0330769,36.1805608 14.0469231,36.1805608 14.0607692,36.1874838 C14.9192308,36.1874838 16.2761538,37.7659454 17.1276923,38.2574838 C17.4876923,38.4859454 18,38.7005608 18.5053846,38.7905608 C22.8115385,39.4690223 22.5069231,35.7720992 26.0584615,36.1251762 C26.1207692,36.1251762 26.3284615,36.1667146 26.3838462,36.1805608 C26.3976923,36.1805608 26.4115385,36.1805608 26.4253846,36.1874838 C26.5015385,36.1874838 26.9307692,36.2982531 27.4846154,36.6582531 C28.62,37.4405608 29.2776923,38.6382531 31.2992308,38.8459454 C34.5738462,39.1574838 34.9684615,36.7274838 37.1423077,36.1805608 L37.1630769,36.1805608 C39.1015385,35.6267146 40.4861538,37.1982531 41.1715385,37.7659454 C41.8638462,38.3405608 42.7223077,38.8667146 44.1346154,38.8667146 C44.4184615,38.8667146 44.6538462,38.63133 44.6538462,38.3474838 C44.6538462,38.0567146 44.4184615,37.8282531 44.1346154,37.8282531 Z M23.4553846,14.9474838 C22.2784615,12.08133 25.3938462,8.24594538 29.1253846,8.00363769 C29.7207692,7.96902231 29.7830769,7.08979154 29.1946154,6.97902231 C27.8723077,6.68825308 26.1069231,6.68825308 24.4938462,7.14517615 C24.7223077,6.63286846 25.1376923,6.18979154 25.7053846,5.85056077 C28.0107692,4.48671462 29.4646154,5.96133 29.8592308,5.09594538 C29.9630769,4.87440692 29.8869231,4.60440692 29.6861538,4.45902231 C28.1838462,3.37902231 26.5153846,2.64517615 24.8123077,2.30594538 C27.1246154,0.159791538 32.0676923,1.92517615 33.3553846,5.60825308 C33.4730769,5.97517615 33.9646154,6.08594538 34.2346154,5.78133 C36.7407692,2.92902231 42.0369231,3.10209923 43.38,6.02363769 C41.6769231,5.67748385 39.8561538,5.71902231 38.0561538,6.13440692 C37.8138462,6.18979154 37.6407692,6.41133 37.6546154,6.66056077 C37.6684615,7.16594538 38.1461538,7.14517615 38.6169231,7.26979154 C40.4792308,7.78209923 41.7669231,9.18748385 41.8084615,10.6136377 C40.5346154,9.59594538 38.9423077,8.91748385 37.5369231,8.64748385 C36.9346154,8.53671462 36.6646154,9.35363769 37.2046154,9.62363769 C40.6107692,11.2920992 41.9261538,16.0759454 39.7661538,18.2082531 C39.1015385,14.1444069 36.2076923,10.4751762 33.2792308,9.00748385 C33.0853846,8.90363769 32.8015385,8.96594538 32.3030769,9.04209923 C28.8207692,9.60979154 25.38,11.8320992 23.4553846,14.9474838 Z M32.3723077,10.0874838 C32.5592308,10.0528685 32.7392308,10.0251762 32.9261538,10.0044069 C33.2030769,10.1567146 33.4730769,10.3297915 33.7361538,10.5167146 C34.7538462,15.77133 34.9476923,22.4936377 32.1784615,29.3544069 C30.7523077,28.6551762 29.0976923,28.1151762 27.2838462,27.7620992 C30.8423077,22.2582531 32.6353846,16.0274838 32.3723077,10.0874838 Z M36.1661538,35.4120992 C36.1592308,35.4120992 36.1523077,35.4120992 36.1453846,35.4190223 C34.4630769,36.1390223 33.9853846,37.8282531 31.7630769,37.8282531 C29.0007692,37.8282531 28.8761538,35.0590223 25.5876923,35.0590223 C22.2507692,35.0590223 22.2092308,37.8282531 19.4053846,37.8282531 C16.5876923,37.8282531 16.5392308,35.0590223 13.2230769,35.0590223 C10.6615385,35.0590223 9.22846154,37.2674838 8.93076923,37.2674838 C8.84769231,37.3297915 8.69538462,37.4128685 8.62615385,37.4544069 L8.61923077,37.4544069 C6.79153846,30.8359454 18.2838462,27.3190223 26.6538462,28.7105608 C30.5307692,29.3820992 35.6192308,31.4728685 36.4430769,35.30133 C36.3461538,35.3359454 36.2561538,35.3705608 36.1661538,35.4120992 Z" id="Shape"></path>
                    <path d="M11.2776923,8.70286846 C8.71615385,8.70286846 6.62538462,10.7936377 6.62538462,13.3551762 C6.62538462,15.9236377 8.71615385,18.0144069 11.2776923,18.0144069 C13.8461538,18.0144069 15.9369231,15.9236377 15.9369231,13.3551762 C15.9369231,10.7936377 13.8461538,8.70286846 11.2776923,8.70286846 Z M11.2776923,16.9759454 C9.29076923,16.9759454 7.66384615,15.3490223 7.66384615,13.3551762 C7.66384615,11.3682531 9.29076923,9.74133 11.2776923,9.74133 C13.2715385,9.74133 14.8984615,11.3682531 14.8984615,13.3551762 C14.8984615,15.3490223 13.2715385,16.9759454 11.2776923,16.9759454 Z" id="Shape"></path>
                    <path d="M11.2822615,7.36906846 C11.5689462,7.36906846 11.8014923,7.13652231 11.8014923,6.84983769 L11.8014923,5.95676077 C11.8014923,5.67007615 11.5689462,5.43753 11.2822615,5.43753 C10.9956462,5.43753 10.7630308,5.67007615 10.7630308,5.95676077 L10.7630308,6.84983769 C10.7630308,7.13652231 10.9956462,7.36906846 11.2822615,7.36906846 Z" id="Path"></path>
                    <path d="M10.7630308,19.8637685 L10.7630308,20.7568454 C10.7630308,21.04353 10.9956462,21.2760762 11.2822615,21.2760762 C11.5689462,21.2760762 11.8014923,21.04353 11.8014923,20.7568454 L11.8014923,19.8637685 C11.8014923,19.5770838 11.5689462,19.3445377 11.2822615,19.3445377 C10.9956462,19.3445377 10.7630308,19.5770838 10.7630308,19.8637685 Z" id="Path"></path>
                    <path d="M16.3883769,9.29049923 L17.0404615,8.68036846 C17.2500923,8.48430692 17.2608923,8.15566846 17.0651769,7.94645308 C16.8691154,7.73654538 16.5405462,7.72602231 16.3312615,7.92180692 L15.6791769,8.53193769 C15.4696154,8.72799923 15.4588154,9.05656846 15.6545308,9.26585308 C15.8511462,9.47610692 16.1798538,9.48566077 16.3883769,9.29049923 Z" id="Path"></path>
                    <path d="M6.23263846,18.7921454 L6.88506923,18.1820146 C7.09463077,17.9859531 7.10543077,17.6573838 6.90971538,17.4480992 C6.71296154,17.2381915 6.38508462,17.2277377 6.17586923,17.4234531 L5.52343846,18.0335838 C5.31380769,18.2296454 5.30300769,18.5582146 5.49872308,18.7674992 C5.69533846,18.9777531 6.02411538,18.9873069 6.23263846,18.7921454 Z" id="Path"></path>
                    <path d="M17.7402462,14.3077223 L18.6313154,14.3668454 C18.6431538,14.3675377 18.6546462,14.3678838 18.6664846,14.3678838 C18.9372462,14.3678838 19.1657077,14.15763 19.1839846,13.88313 C19.2029538,13.5967915 18.9862615,13.3497069 18.7002692,13.3304608 L17.8092,13.2712685 C17.5259077,13.2502915 17.2754308,13.4683685 17.2564615,13.7549838 C17.2375615,14.0413223 17.4542538,14.2884069 17.7402462,14.3077223 Z" id="Path"></path>
                    <path d="M3.86328462,13.3831454 L4.7547,13.4426838 C4.76653846,13.4433069 4.77803077,13.4436531 4.78986923,13.4436531 C5.06063077,13.4436531 5.28881538,13.2333992 5.30743846,12.9588992 C5.32633846,12.6729762 5.10999231,12.4254762 4.82365385,12.40623 L3.93223846,12.3467608 C3.64631538,12.3297992 3.39881538,12.5437915 3.37956923,12.8304762 C3.36066923,13.1164685 3.57701538,13.3638992 3.86328462,13.3831454 Z" id="Path"></path>
                    <path d="M15.8035846,18.0646685 C15.6217154,17.8429223 15.2948077,17.8104531 15.0727154,17.9916992 C14.8509692,18.1732223 14.8182231,18.5004069 14.9997462,18.7224992 L15.5652923,19.4138377 C15.7467462,19.6352377 16.0730308,19.6685377 16.2960923,19.4868069 C16.5178385,19.3052838 16.5506538,18.9780992 16.3691308,18.7560069 L15.8035846,18.0646685 Z" id="Path"></path>
                    <path d="M6.75996923,8.64893769 C6.94142308,8.87033769 7.26777692,8.90363769 7.49083846,8.72190692 C7.71258462,8.54038385 7.7454,8.21319923 7.56380769,7.99110692 L6.99833077,7.29976846 C6.81611538,7.07767615 6.49024615,7.04520692 6.26746154,7.22679923 C6.04571538,7.40832231 6.0129,7.73550692 6.19442308,7.95759923 L6.75996923,8.64893769 Z" id="Path"></path>
                </g>
            </g>
        </g>
    </g>
</svg>