<?xml version="1.0" encoding="UTF-8"?>
<svg width="40px" height="40px" viewBox="0 0 40 40" version="1.1" xmlns="http://www.w3.org/2000/svg" xmlns:xlink="http://www.w3.org/1999/xlink">
    <title>1AE176A0-6C2D-4EFD-AC7C-CC2613D396EA</title>
    <g id="Page-1" stroke="none" stroke-width="1" fill="none" fill-rule="evenodd">
        <g id="Assets" transform="translate(-1030.000000, -3012.000000)" fill="#011C37" fill-rule="nonzero">
            <g id="noun_eco_2046334" transform="translate(1030.000000, 3012.000000)">
                <path d="M20.0012207,0 C8.97314455,0 0.0012207,8.97192385 0.0012207,20 C0.0012207,25.8630371 2.5,31.3034363 6.89678955,35.1091308 L4.5595703,35.1091308 C4.28344725,35.1091308 4.0595703,35.3330078 4.0595703,35.6091308 C4.0595703,35.8852539 4.28344725,36.1091308 4.5595703,36.1091308 L8.2705078,36.1091308 C8.54663085,36.1091308 8.7705078,35.8852539 8.7705078,35.6091308 L8.7705078,31.9995117 C8.7705078,31.7233886 8.54663085,31.4995117 8.2705078,31.4995117 C7.99438475,31.4995117 7.7705078,31.7233886 7.7705078,31.9995117 L7.7705078,34.5342712 C3.45983885,30.9111023 1.0012207,25.6646118 1.0012207,20 C1.0012207,9.5234375 9.5246582,1 20.0012207,1 C30.4777832,1 39.0012207,9.5234375 39.0012207,20 C39.0012207,30.4765625 30.4777832,39 20.0012207,39 C19.7250976,39 19.5012207,39.2238769 19.5012207,39.5 C19.5012207,39.7761231 19.7250976,40 20.0012207,40 C31.0292968,40 40.0012207,31.0280762 40.0012207,20 C40.0012207,8.97192385 31.0292969,0 20.0012207,0 Z" id="Path"></path>
                <path d="M15.8918457,19.5466308 C13.0869141,16.7438964 6.22631835,16.7927246 5.93554685,16.7946777 C5.6672363,16.7978516 5.44921875,17.012207 5.44165035,17.2805176 C5.4335937,17.5666504 5.27685545,24.322998 8.1950683,27.2397461 C9.3146972,28.3586426 10.7775879,28.9206543 12.2241211,28.9206543 C13.4519348,28.9206543 14.6668701,28.5133362 15.6503601,27.6993713 L19.5024414,31.5470581 L19.501709,33.3779297 C19.501709,33.6540527 19.7253418,33.8781738 20.0014648,33.8781738 C20.001709,33.8781738 20.001709,33.8781738 20.001709,33.8781738 C20.277832,33.8781738 20.501709,33.654541 20.501709,33.378418 L20.5024414,31.5465698 L24.3538208,27.6994934 C25.3372497,28.5135193 26.5520324,28.9206543 27.7800293,28.9206543 C29.2263183,28.9206543 30.6894531,28.3583985 31.809082,27.2397461 C34.7272949,24.3229981 34.5705566,17.5666504 34.5625,17.2805176 C34.5549316,17.0122071 34.336914,16.7978516 34.0686035,16.7946778 C33.7800293,16.7910157 26.9177246,16.7431641 24.1123046,19.5466309 C23.0527343,20.6057129 22.4545898,22.0004883 22.4282226,23.4741211 C22.4049071,24.7824097 22.8355102,26.0130616 23.6466369,26.9926453 L20.5029906,30.132721 L20.5072631,19.4718628 C23.2743834,19.210083 25.4504699,16.8013611 25.4511718,13.8759766 C25.4523925,9.7497559 20.564453,5.083252 20.3564452,4.88647465 C20.161621,4.7023926 19.8554687,4.70483405 19.6635741,4.89233405 C19.4555663,5.09545905 14.5705565,9.9125977 14.5693358,13.878418 C14.5688475,15.3764649 15.1323241,16.7856446 16.1557616,17.8464356 C17.0646667,18.7886048 18.2402343,19.3542786 19.5072631,19.4728394 L19.5029906,30.134369 L16.357605,26.9925537 C17.1686707,26.0129699 17.5992127,24.7823486 17.5759278,23.4741211 C17.5495606,22.0004883 16.951416,20.6057129 15.8918457,19.5466308 Z M7.0760498,22.8813171 L10.7325745,22.7872009 L13.039856,25.0918579 L7.9602661,25.2224426 C7.57766725,24.513031 7.29049685,23.7065429 7.0760498,22.8813171 Z M7.18740845,17.8328247 C8.052063,17.8813171 9.27337645,17.9920959 10.5357056,18.2386169 L10.4620972,21.1037597 L7.18740845,17.8328247 Z M6.4623108,18.5217895 L9.7564087,21.8121338 L6.8483887,21.8869934 C6.59994505,20.6119079 6.5005188,19.384552 6.4623108,18.5217895 Z M11.4372254,22.0777893 L11.5300904,18.4641418 C12.3599244,18.6768493 13.1686707,18.9576111 13.8736573,19.3275451 L13.7436524,24.3815918 L11.4372254,22.0777893 Z M8.9020996,26.5322265 C8.8008423,26.4310302 8.7079773,26.3181762 8.61483765,26.20578 L14.0160523,26.066925 L14.9389344,26.9887695 C13.1893616,28.3725281 10.5806275,28.2098694 8.9020996,26.5322265 Z M25.0653076,26.9888305 L25.9882202,26.066925 L31.3893128,26.20578 C31.2961731,26.3181763 31.2033081,26.4310303 31.1020508,26.5322266 C29.4235535,28.2100525 26.8149109,28.3725586 25.0653076,26.9888305 Z M33.1557617,21.8869934 L30.2478027,21.8121338 L33.5418396,18.5218201 C33.5036316,19.384552 33.4042053,20.6119079 33.1557617,21.8869934 Z M32.0438843,25.2224426 L26.9644165,25.0918579 L29.2716675,22.7872009 L32.9281006,22.8813171 C32.7136536,23.7065429 32.4264832,24.513031 32.0438843,25.2224426 Z M29.5420838,21.1038208 L29.4684449,18.2386169 C30.7308045,17.9920959 31.952118,17.8813171 32.8167725,17.8328247 L29.5420838,21.1038208 Z M28.5669251,22.0778808 L26.2604981,24.3816833 L26.1304932,19.3275451 C26.8354797,18.957611 27.6442261,18.6768493 28.4740601,18.4641418 L28.5669251,22.0778808 Z M23.4282227,23.4919433 C23.4499512,22.2788086 23.9438477,21.1289062 24.819336,20.2541504 C24.920105,20.1534424 25.0332947,20.0605163 25.1467896,19.967865 L25.2853699,25.3557129 L24.3588562,26.2811889 C23.7388001,25.4976196 23.409607,24.5255432 23.4282227,23.4919433 Z M16.88797,10.0287781 L19.5100098,12.5193176 L19.508728,15.7796936 L15.8413391,12.2963562 C16.0782776,11.5362854 16.4515991,10.7659302 16.88797,10.0287781 Z M24.1913452,12.2830505 L20.508728,15.7807617 L20.5100098,12.5206909 L23.1616821,10.0019226 C23.5934143,10.73703 23.9604492,11.5104675 24.1913452,12.2830505 Z M19.5105591,11.1406555 L17.4316712,9.1661377 C18.1499939,8.09921265 18.9352417,7.15719605 19.5124207,6.51153565 L19.5105591,11.1406555 Z M20.5076599,18.4667053 L20.5081787,17.1604919 L24.4234924,13.4415893 C24.4370727,13.5868835 24.4511719,13.7323302 24.4511719,13.8754882 C24.4505005,16.2480469 22.7223511,18.2068786 20.5076599,18.4667053 Z M22.6196289,9.13772585 L20.5105591,11.1409607 L20.5124207,6.48535155 C21.0956726,7.12216185 21.8935242,8.06015015 22.6196289,9.13772585 Z M16.8752442,17.1520996 C16.0327149,16.2788086 15.5690918,15.116455 15.5693359,13.8789062 C15.569397,13.7363586 15.5837098,13.5905761 15.5984803,13.4447326 L19.5081788,17.1583862 L19.50766,18.4665832 C18.5144348,18.3513183 17.5935364,17.8963623 16.8752442,17.1520996 Z M14.7187805,25.3555908 L14.8573609,19.967865 C14.9708557,20.0605163 15.0840454,20.1534424 15.1848145,20.2541504 C16.0603028,21.1289062 16.5541992,22.2788086 16.5759278,23.4919433 C16.5945435,24.5255127 16.2653809,25.4975586 15.6453553,26.2810974 L14.7187805,25.3555908 Z" id="Shape"></path>
            </g>
        </g>
    </g>
</svg>