<svg xmlns="http://www.w3.org/2000/svg" viewBox="0 0 545.58 184.93"><defs><style>.cls-1{fill:#fff;}</style></defs><title>Asset 2</title><g id="Layer_2" data-name="Layer 2"><g id="Layer_1-2" data-name="Layer 1"><path class="cls-1" d="M44.77,110.58C67.47,100.37,88.58,89,113.47,83c16.75-4,32.77-5.56,49.82-2.54a.43.43,0,0,1,.06.85c-13.14.74-29.91,6.13-38.67,9.59-24.8,9.81-46.45,23-73.08,30.07-12.68,3.38-25.43,4.66-37.51-.32C-5.65,112.51-3,89.83,11.87,85.89c.5-.13.75.67.44.77C5.69,88.87.72,95.46,2.55,102.47a18.4,18.4,0,0,0,11,12.63C24.14,119.32,35.09,114.94,44.77,110.58Z"/><path class="cls-1" d="M58.46,90.16C196.09,22.6,197,121.76,401.38,62.07,232,105.5,210.81,8.71,58.46,90.16Z"/><path class="cls-1" d="M150.86,138c-2.49,2.92-6.52,4.4-12.07,4.4H125.88v-32.6h13c10.16,0,15.24,5.54,15.24,16.68C154.16,131.57,153.06,135.38,150.86,138Zm-2-22c-2.24-2.8-5.59-4.19-10-4.19H128v28.54h10.88q13,0,13-13.89C151.92,122,150.91,118.53,148.87,116Z"/><path class="cls-1" d="M181.57,142.62c-4.45,0-7.71-1-9.75-3s-3-5.21-3-9.66V109.77h2.16V130c0,3.6.84,6.27,2.49,8s4.37,2.62,8.14,2.62q10.73,0,10.71-10.63V109.77h2.16v20.32Q194.44,142.6,181.57,142.62Z"/><path class="cls-1" d="M225.06,142.37H210.23v-32.6h14.4c3.52,0,6.1.59,7.84,1.73a6.42,6.42,0,0,1,2.62,5.67,7,7,0,0,1-1.65,4.75,5.75,5.75,0,0,1-3.43,2c5,.93,7.54,3.72,7.54,8.38C237.55,139,233.4,142.37,225.06,142.37ZM230.81,113c-1.31-.8-3.38-1.18-6.18-1.18H212.4v11.43h12.74c5.21,0,7.79-2,7.79-6.1A4.44,4.44,0,0,0,230.81,113Zm1.91,14a12.18,12.18,0,0,0-7-1.78H212.4v15.12h12.66c6.9,0,10.33-2.67,10.33-8A6.18,6.18,0,0,0,232.72,127Z"/><path class="cls-1" d="M277.73,142.37l-3.38-8H255.88l-3.38,8h-2.37l13.76-32.6h2.45l13.81,32.6Zm-12.61-29.89-8.39,19.94h16.73Z"/><path class="cls-1" d="M293,142.37v-32.6h2.21v32.6Z"/><path class="cls-1" d="M358.87,142.37V112.86l-12.74,29.51h-2.08l-13-29.51v29.51h-2.12v-32.6h3.26l13,29.68,12.58-29.68H361v32.6Z"/><path class="cls-1" d="M401.39,142.37l-3.39-8H379.54l-3.39,8h-2.37l13.76-32.6H390l13.8,32.6Zm-12.62-29.89-8.39,19.94h16.73Z"/><path class="cls-1" d="M440.73,142.37l-9.87-17.11h-12v17.11h-2.17v-32.6h15.89c7.11,0,10.67,2.58,10.67,7.79,0,5-3.26,7.49-9.74,7.66l9.86,17.15Zm-7.92-30.57h-14v11.52h14.69c5,0,7.58-1.91,7.58-5.72S438.36,111.8,432.81,111.8Z"/><path class="cls-1" d="M458.34,142.37v-32.6h2.21v32.6Z"/><path class="cls-1" d="M499.89,142.37l-21.3-29.94v29.94h-2.12v-32.6h3l21.13,29.51V109.77h2.16v32.6Z"/><path class="cls-1" d="M543.16,142.37l-3.38-8H521.31l-3.38,8h-2.37l13.76-32.6h2.45l13.81,32.6Zm-12.61-29.89-8.39,19.94h16.73Z"/><path class="cls-1" d="M194,175.9v8.82h-1.83V175.9l-10.91-18.35h2l7.59,12.56q1.11,1.9,2.22,4.13c.67-1.24,1.27-2.57,2.08-3.91L203,157.55h2Z"/><path class="cls-1" d="M236.25,184.72l-2.82-6.67H218.05l-2.82,6.67h-2l11.47-27.17h2l11.5,27.17Zm-10.51-24.91-7,16.62h13.93Z"/><path class="cls-1" d="M269.07,164.33q-3.27-5.29-8.6-5.3A10,10,0,0,0,253,162c-2.08,2.16-3.1,5.16-3.1,9q0,6.19,3.17,9.42a9.72,9.72,0,0,0,7.27,2.86,9.36,9.36,0,0,0,9.14-5.9l1.58.89a10.49,10.49,0,0,1-4.23,5,11.93,11.93,0,0,1-6.49,1.73,11.67,11.67,0,0,1-8.57-3.21c-2.51-2.44-3.78-6-3.78-10.76,0-4.48,1.27-7.94,3.85-10.38a12,12,0,0,1,8.61-3.24,11,11,0,0,1,10.19,5.89Z"/><path class="cls-1" d="M303.55,184.72V170.43h-19.3v14.29h-1.8V157.55h1.8v11.22h19.3V157.55h1.8v27.17Z"/><path class="cls-1" d="M327.87,159.25v25.47H326V159.25h-9.49v-1.7h20.82v1.7Z"/><path class="cls-1" d="M383.45,164.33c-2.19-3.53-5.05-5.3-8.61-5.3a10,10,0,0,0-7.45,2.93c-2.08,2.16-3.1,5.16-3.1,9q0,6.19,3.17,9.42a9.72,9.72,0,0,0,7.27,2.86,9.35,9.35,0,0,0,9.14-5.9l1.59.89a10.56,10.56,0,0,1-4.24,5,11.93,11.93,0,0,1-6.49,1.73,11.67,11.67,0,0,1-8.57-3.21c-2.5-2.44-3.78-6-3.78-10.76q0-6.72,3.85-10.38a12,12,0,0,1,8.61-3.24A11,11,0,0,1,385,163.23Z"/><path class="cls-1" d="M396.82,184.72V157.55h1.8V183h17.47l.92,1.7Z"/><path class="cls-1" d="M438.36,184.93c-3.71,0-6.43-.85-8.12-2.51s-2.54-4.33-2.54-8V157.55h1.8v16.83c0,3,.71,5.22,2.08,6.67s3.64,2.19,6.78,2.19c6,0,8.92-3,8.92-8.86V157.55h1.8v16.94C449.08,181.44,445.52,184.93,438.36,184.93Z"/><path class="cls-1" d="M474.6,184.72H462.25V157.55h12c2.92,0,5.08.5,6.52,1.45a5.33,5.33,0,0,1,2.19,4.73,5.82,5.82,0,0,1-1.37,4,4.89,4.89,0,0,1-2.86,1.66c4.19.77,6.27,3.1,6.27,7C485,181.93,481.55,184.72,474.6,184.72Zm4.8-24.49a10.27,10.27,0,0,0-5.15-1h-10.2v9.52h10.62c4.34,0,6.49-1.69,6.49-5.08A3.69,3.69,0,0,0,479.4,160.23ZM481,171.91a10.15,10.15,0,0,0-5.86-1.48H464.05V183H474.6c5.75,0,8.61-2.21,8.61-6.66A5.16,5.16,0,0,0,481,171.91Z"/><path class="cls-1" d="M258.68,55.19S278.45,50,288.77,27.68c0,0-148.31-23.64-265.23,57.17,0,0,114.35-58.89,242.45-47.71C266,37.14,278.49,37.74,258.68,55.19Z"/><path class="cls-1" d="M126.37,25c50.43-28.58,73.8-11.53,77.83-8,2.13-.17,4.28-.34,6.45-.49,0,0-14-51.52-125.62,27.42,0,0,40.58-17.94,103.77-25.37C178.56,10.55,126.37,25,126.37,25Z"/></g></g></svg>