<?xml version="1.0" encoding="UTF-8"?>
<svg width="38px" height="38px" viewBox="0 0 38 38" version="1.1" xmlns="http://www.w3.org/2000/svg" xmlns:xlink="http://www.w3.org/1999/xlink">
    <title>123FED03-0D70-4C57-A637-D7683B0B5C73</title>
    <g id="Page-1" stroke="none" stroke-width="1" fill="none" fill-rule="evenodd">
        <g id="Assets" transform="translate(-1032.000000, -3489.000000)" fill="#011C37" fill-rule="nonzero">
            <g id="hotel-parking-sign" transform="translate(1032.000000, 3489.000000)">
                <path d="M4.13043478,38 L33.8695652,38 C36.1462609,38 38,36.1462609 38,33.8695652 L38,4.13043478 C38,1.85373913 36.1462609,0 33.8695652,0 L4.13043478,0 C1.85373913,0 0,1.85373913 0,4.13043478 L0,33.8695652 C0,36.1462609 1.85373913,38 4.13043478,38 Z M1.65217391,4.13043478 C1.65217391,2.76408696 2.76408696,1.65217391 4.13043478,1.65217391 L33.8695652,1.65217391 C35.235913,1.65217391 36.3478261,2.76408696 36.3478261,4.13043478 L36.3478261,33.8695652 C36.3478261,35.235913 35.235913,36.3478261 33.8695652,36.3478261 L4.13043478,36.3478261 C2.76408696,36.3478261 1.65217391,35.235913 1.65217391,33.8695652 L1.65217391,4.13043478 Z" id="Shape"></path>
                <path d="M15.6956522,18.173913 L19.826087,18.173913 C21.6484348,18.173913 23.1304348,16.691913 23.1304348,14.8695652 C23.1304348,13.0472174 21.6484348,11.5652174 19.826087,11.5652174 L15.6956522,11.5652174 C15.2396522,11.5652174 14.8695652,11.9353043 14.8695652,12.3913043 L14.8695652,17.3478261 C14.8695652,17.8038261 15.2396522,18.173913 15.6956522,18.173913 Z M16.5217391,13.2173913 L19.826087,13.2173913 C20.7364348,13.2173913 21.4782609,13.9592174 21.4782609,14.8695652 C21.4782609,15.779913 20.7364348,16.5217391 19.826087,16.5217391 L16.5217391,16.5217391 L16.5217391,13.2173913 Z" id="Shape"></path>
                <path d="M10.7391304,31.3913043 L15.6956522,31.3913043 C16.1516522,31.3913043 16.5217391,31.0212174 16.5217391,30.5652174 L16.5217391,23.1304348 L19.826087,23.1304348 C24.3811304,23.1304348 28.0869565,19.4246087 28.0869565,14.8695652 C28.0869565,10.3145217 24.3811304,6.60869565 19.826087,6.60869565 L10.7391304,6.60869565 C10.2831304,6.60869565 9.91304348,6.97878261 9.91304348,7.43478261 L9.91304348,30.5652174 C9.91304348,31.0212174 10.2831304,31.3913043 10.7391304,31.3913043 Z M11.5652174,8.26086957 L19.826087,8.26086957 C23.4707826,8.26086957 26.4347826,11.2248696 26.4347826,14.8695652 C26.4347826,18.5142609 23.4707826,21.4782609 19.826087,21.4782609 L15.6956522,21.4782609 C15.2396522,21.4782609 14.8695652,21.8483478 14.8695652,22.3043478 L14.8695652,29.7391304 L11.5652174,29.7391304 L11.5652174,8.26086957 Z" id="Shape"></path>
            </g>
        </g>
    </g>
</svg>