<?xml version="1.0" encoding="UTF-8"?>
<svg width="35px" height="40px" viewBox="0 0 35 40" version="1.1" xmlns="http://www.w3.org/2000/svg" xmlns:xlink="http://www.w3.org/1999/xlink">
    <title>FE603733-1896-4E0C-A288-F510CFE6D939</title>
    <g id="Page-1" stroke="none" stroke-width="1" fill="none" fill-rule="evenodd">
        <g id="Assets" transform="translate(-1030.000000, -3209.000000)" fill="#011C37" fill-rule="nonzero">
            <g id="noun_premium_3128301" transform="translate(1030.000000, 3209.000000)">
                <g id="Group" transform="translate(0.000000, 0.360405)">
                    <path d="M17.2084054,8.84554054 C17.0462062,8.91134285 16.9137941,9.03418767 16.8362162,9.19083784 L14.5712703,13.7668108 L9.50854054,14.5007297 C9.2390498,14.5399237 9.01518353,14.7283277 8.93097689,14.9868026 C8.84677026,15.2452775 8.91680992,15.5290491 9.11167568,15.7189189 L12.7760541,19.2844324 L11.9081081,24.3148919 C11.8614301,24.5830701 11.9714971,24.8544196 12.1919581,25.0146709 C12.4124191,25.1749221 12.7049671,25.1962301 12.9464054,25.0696216 L17.4761892,22.693027 L22.0046486,25.0704324 C22.2458191,25.1962524 22.5376151,25.1747234 22.7576244,25.0148771 C22.9776337,24.8550308 23.0878046,24.5845136 23.0419189,24.3168108 L22.1791622,19.2853243 L25.8433514,15.7222432 C26.0382596,15.5322901 26.1082448,15.2483944 26.0238932,14.9898735 C25.9395415,14.7313525 25.7154747,14.5430191 25.4458649,14.504027 L20.3847838,13.7685946 L18.1201081,9.19089189 C17.9539016,8.85506173 17.5560305,8.70434886 17.2084054,8.84554054 L17.2084054,8.84554054 Z M17.4767838,11.1211081 L19.2671892,14.7373514 C19.3714274,14.9476594 19.5724897,15.0934833 19.8051081,15.1274865 L23.8028108,15.7077568 L20.9104865,18.5235946 C20.7416149,18.6875647 20.6643987,18.9239637 20.704,19.1557568 L21.3885135,23.1308919 L17.8095946,21.2533784 C17.600508,21.1436113 17.3506199,21.1438641 17.1417568,21.2540541 L13.565027,23.1305135 L14.2508919,19.1561081 C14.2909692,18.9237581 14.2136068,18.6866349 14.0441351,18.5223784 L11.1485135,15.7072432 L15.1498919,15.1277027 C15.3832192,15.0939981 15.5849595,14.9478026 15.6892973,14.7368108 L17.4767838,11.1211081 Z" id="Shape"></path>
                    <path d="M17.4721622,0.156981951 C17.3798724,0.156981951 17.2884616,0.174984668 17.202973,0.209756757 L1.351,6.77648649 C1.05471901,6.89843247 0.875697541,7.20255142 0.912864865,7.52078378 C1.86427027,15.481 3.90264865,22.5174324 6.71418919,27.9071892 C9.5257027,33.2969459 13.1202973,37.0803514 17.2663243,38.3695946 C17.403881,38.4121026 17.551065,38.4121026 17.6886216,38.3695946 C21.8346486,37.0803514 25.423973,33.2969459 28.2355135,27.9071892 C31.047027,22.5174324 33.0906757,15.481 34.0420811,7.52078378 C34.0792484,7.20255142 33.9002269,6.89843247 33.6039459,6.77648649 L17.751973,0.209756757 C17.6631864,0.173615572 17.5680401,0.155692917 17.4721892,0.156981951 L17.4721622,0.156981951 Z M17.4775676,1.64564865 L32.5166216,7.87454054 C31.5544054,15.4624595 29.6102973,22.1781081 26.9687027,27.2421622 C24.3175405,32.3244595 20.9990541,35.6746757 17.4775676,36.8652432 C13.956,35.6747027 10.6376216,32.3245405 7.98643243,27.2421622 C5.3447027,22.1778919 3.39537838,15.4628919 2.43321622,7.87454054 L17.4775676,1.64564865 Z" id="Shape"></path>
                </g>
            </g>
        </g>
    </g>
</svg>