<?xml version="1.0" encoding="UTF-8"?>
<svg width="38px" height="37px" viewBox="0 0 38 37" version="1.1" xmlns="http://www.w3.org/2000/svg" xmlns:xlink="http://www.w3.org/1999/xlink">
    <title>C347B9AF-0504-4473-800A-AB5B74F56637</title>
    <defs>
        <polygon id="path-1" points="0 0.211111111 37.7888889 0.211111111 37.7888889 34.8330167 0 34.8330167"></polygon>
        <polygon id="path-3" points="0 35.6780944 37.7888889 35.6780944 37.7888889 1.05587222 0 1.05587222"></polygon>
    </defs>
    <g id="Page-1" stroke="none" stroke-width="1" fill="none" fill-rule="evenodd">
        <g id="Assets" transform="translate(-1032.000000, -3300.000000)">
            <g id="icon-Events-Copy" transform="translate(1032.000000, 3300.000000)">
                <g id="Group-3" transform="translate(0.000000, 0.844761)">
                    <mask id="mask-2" fill="white">
                        <use xlink:href="#path-1"></use>
                    </mask>
                    <g id="Clip-2"></g>
                    <path d="M36.4166667,9.71079444 L1.37222222,9.71079444 L1.37222222,4.74968333 L6.33333333,4.74968333 L6.33333333,5.64690556 C6.33333333,6.02479444 6.64155556,6.33301667 7.01944444,6.33301667 C7.39733333,6.33301667 7.70555556,6.02479444 7.70555556,5.64690556 L7.70555556,4.74968333 L14.25,4.74968333 L14.25,5.64690556 C14.25,6.02479444 14.5582222,6.33301667 14.9361111,6.33301667 C15.314,6.33301667 15.6222222,6.02479444 15.6222222,5.64690556 L15.6222222,4.74968333 L22.1666667,4.74968333 L22.1666667,5.64690556 C22.1666667,6.02479444 22.4748889,6.33301667 22.8527778,6.33301667 C23.2306667,6.33301667 23.5388889,6.02479444 23.5388889,5.64690556 L23.5388889,4.74968333 L30.0833333,4.74968333 L30.0833333,5.64690556 C30.0833333,6.02479444 30.3915556,6.33301667 30.7694444,6.33301667 C31.1473333,6.33301667 31.4555556,6.02479444 31.4555556,5.64690556 L31.4555556,4.74968333 L36.4166667,4.74968333 L36.4166667,9.71079444 Z M1.37222222,33.4607944 L36.4166667,33.4607944 L36.4166667,11.0830167 L1.37222222,11.0830167 L1.37222222,33.4607944 Z M37.1027778,3.37746111 L31.4555556,3.37746111 L31.4555556,0.896905556 C31.4555556,0.519016667 31.1473333,0.210794444 30.7694444,0.210794444 C30.3915556,0.210794444 30.0833333,0.519016667 30.0833333,0.896905556 L30.0833333,3.37746111 L23.5388889,3.37746111 L23.5388889,0.896905556 C23.5388889,0.519016667 23.2306667,0.210794444 22.8527778,0.210794444 C22.4748889,0.210794444 22.1666667,0.519016667 22.1666667,0.896905556 L22.1666667,3.37746111 L15.6222222,3.37746111 L15.6222222,0.896905556 C15.6222222,0.519016667 15.314,0.210794444 14.9361111,0.210794444 C14.5582222,0.210794444 14.25,0.519016667 14.25,0.896905556 L14.25,3.37746111 L7.70555556,3.37746111 L7.70555556,0.896905556 C7.70555556,0.519016667 7.39733333,0.210794444 7.01944444,0.210794444 C6.64155556,0.210794444 6.33333333,0.519016667 6.33333333,0.896905556 L6.33333333,3.37746111 L0.686111111,3.37746111 C0.308222222,3.37746111 0,3.68568333 0,4.06357222 L0,34.1469056 C0,34.5247944 0.308222222,34.8330167 0.686111111,34.8330167 L37.1027778,34.8330167 C37.4806667,34.8330167 37.7888889,34.5247944 37.7888889,34.1469056 L37.7888889,4.06357222 C37.7888889,3.68568333 37.4806667,3.37746111 37.1027778,3.37746111 L37.1027778,3.37746111 Z" id="Fill-1" fill="#011C37" mask="url(#mask-2)"></path>
                </g>
                <mask id="mask-4" fill="white">
                    <use xlink:href="#path-3"></use>
                </mask>
                <g id="Clip-5"></g>
                <path d="M7.6,20.1603722 L11.1888889,20.1603722 L11.1888889,16.5714833 L7.6,16.5714833 L7.6,20.1603722 Z M7.01944444,21.3214833 L11.7694444,21.3214833 C12.0892778,21.3214833 12.35,21.0618167 12.35,20.7419833 L12.35,15.9919833 C12.35,15.6710944 12.0892778,15.4114278 11.7694444,15.4114278 L7.01944444,15.4114278 C6.69961111,15.4114278 6.43888889,15.6710944 6.43888889,15.9919833 L6.43888889,20.7419833 C6.43888889,21.0618167 6.69961111,21.3214833 7.01944444,21.3214833 L7.01944444,21.3214833 Z" id="Fill-4" fill="#011C37" mask="url(#mask-4)"></path>
                <path d="M26.6,20.1603722 L30.1888889,20.1603722 L30.1888889,16.5714833 L26.6,16.5714833 L26.6,20.1603722 Z M26.0194444,21.3214833 L30.7694444,21.3214833 C31.0892778,21.3214833 31.35,21.0618167 31.35,20.7419833 L31.35,15.9919833 C31.35,15.6710944 31.0892778,15.4114278 30.7694444,15.4114278 L26.0194444,15.4114278 C25.6996111,15.4114278 25.4388889,15.6710944 25.4388889,15.9919833 L25.4388889,20.7419833 C25.4388889,21.0618167 25.6996111,21.3214833 26.0194444,21.3214833 L26.0194444,21.3214833 Z" id="Fill-6" fill="#011C37" mask="url(#mask-4)"></path>
                <path d="M17.1,20.1603722 L20.6888889,20.1603722 L20.6888889,16.5714833 L17.1,16.5714833 L17.1,20.1603722 Z M16.5194444,21.3214833 L21.2694444,21.3214833 C21.5892778,21.3214833 21.85,21.0618167 21.85,20.7419833 L21.85,15.9919833 C21.85,15.6710944 21.5892778,15.4114278 21.2694444,15.4114278 L16.5194444,15.4114278 C16.1996111,15.4114278 15.9388889,15.6710944 15.9388889,15.9919833 L15.9388889,20.7419833 C15.9388889,21.0618167 16.1996111,21.3214833 16.5194444,21.3214833 L16.5194444,21.3214833 Z" id="Fill-7" fill="#011C37" mask="url(#mask-4)"></path>
                <path d="M7.6,29.6603722 L11.1888889,29.6603722 L11.1888889,26.0714833 L7.6,26.0714833 L7.6,29.6603722 Z M7.01944444,30.8214833 L11.7694444,30.8214833 C12.0892778,30.8214833 12.35,30.5618167 12.35,30.2419833 L12.35,25.4919833 C12.35,25.1710944 12.0892778,24.9114278 11.7694444,24.9114278 L7.01944444,24.9114278 C6.69961111,24.9114278 6.43888889,25.1710944 6.43888889,25.4919833 L6.43888889,30.2419833 C6.43888889,30.5618167 6.69961111,30.8214833 7.01944444,30.8214833 L7.01944444,30.8214833 Z" id="Fill-8" fill="#011C37" mask="url(#mask-4)"></path>
                <path d="M26.6,29.6603722 L30.1888889,29.6603722 L30.1888889,26.0714833 L26.6,26.0714833 L26.6,29.6603722 Z M26.0194444,30.8214833 L30.7694444,30.8214833 C31.0892778,30.8214833 31.35,30.5618167 31.35,30.2419833 L31.35,25.4919833 C31.35,25.1710944 31.0892778,24.9114278 30.7694444,24.9114278 L26.0194444,24.9114278 C25.6996111,24.9114278 25.4388889,25.1710944 25.4388889,25.4919833 L25.4388889,30.2419833 C25.4388889,30.5618167 25.6996111,30.8214833 26.0194444,30.8214833 L26.0194444,30.8214833 Z" id="Fill-9" fill="#011C37" mask="url(#mask-4)"></path>
                <path d="M17.1,29.6603722 L20.6888889,29.6603722 L20.6888889,26.0714833 L17.1,26.0714833 L17.1,29.6603722 Z M16.5194444,30.8214833 L21.2694444,30.8214833 C21.5892778,30.8214833 21.85,30.5618167 21.85,30.2419833 L21.85,25.4919833 C21.85,25.1710944 21.5892778,24.9114278 21.2694444,24.9114278 L16.5194444,24.9114278 C16.1996111,24.9114278 15.9388889,25.1710944 15.9388889,25.4919833 L15.9388889,30.2419833 C15.9388889,30.5618167 16.1996111,30.8214833 16.5194444,30.8214833 L16.5194444,30.8214833 Z" id="Fill-10" fill="#011C37" mask="url(#mask-4)"></path>
            </g>
        </g>
    </g>
</svg>