<?xml version="1.0" encoding="UTF-8"?>
<svg width="41px" height="37px" viewBox="0 0 41 37" version="1.1" xmlns="http://www.w3.org/2000/svg" xmlns:xlink="http://www.w3.org/1999/xlink">
    <title>4C301E3B-2A64-45FC-877E-B5CE1F33A31B</title>
    <defs>
        <polygon id="path-1" points="0.0436573764 0.349553398 1.94358035 0.349553398 1.94358035 3.10679612 0.0436573764 3.10679612"></polygon>
        <polygon id="path-3" points="0.0742256056 0.349553398 1.97358739 0.349553398 1.97358739 3.10679612 0.0742256056 3.10679612"></polygon>
        <polygon id="path-5" points="0.126058252 0.113242718 22.7879612 0.113242718 22.7879612 28.0122718 0.126058252 28.0122718"></polygon>
        <polygon id="path-7" points="0 0.113242718 22.6641942 0.113242718 22.6641942 28.0122718 0 28.0122718"></polygon>
    </defs>
    <g id="Page-1" stroke="none" stroke-width="1" fill="none" fill-rule="evenodd">
        <g id="Assets" transform="translate(-1031.000000, -3397.000000)">
            <g id="Group-41" transform="translate(1031.000000, 3397.000000)">
                <path d="M10.7128544,35.9952621 L9.78042718,35.9952621 C9.68838835,35.9952621 9.62392233,35.9245825 9.62392233,35.8414757 L9.62392233,33.4026408 C9.62392233,33.3109903 9.68838835,33.2461359 9.78042718,33.2461359 L10.5765437,33.2461359 C10.9742136,33.2461359 11.2992621,33.5704078 11.2992621,33.9669126 C11.2992621,34.1797282 11.2196505,34.3587573 11.0798447,34.4939029 C11.3245049,34.6298252 11.4876117,34.8896311 11.4876117,35.192932 C11.4876117,35.6220583 11.1404272,35.9676893 10.7128544,35.9952621 M11.1800388,35.192932 C11.1800388,34.9172039 10.9582913,34.696233 10.6833398,34.696233 L10.1295534,34.696233 C10.0534369,34.696233 9.97848544,34.6267184 9.97848544,34.5416699 C9.97848544,34.4500194 10.0534369,34.3878835 10.1295534,34.3878835 L10.5765437,34.3878835 C10.8076117,34.3878835 10.9959612,34.1991456 10.9959612,33.9669126 C10.9959612,33.7377864 10.8076117,33.5560388 10.5765437,33.5560388 L9.92994175,33.5560388 L9.92994175,35.6869126 L10.6833398,35.6869126 C10.9582913,35.6869126 11.1800388,35.4674951 11.1800388,35.192932" id="Fill-1" fill="#011C37"></path>
                <path d="M14.4013981,33.2808155 C14.4592621,33.3344078 14.4751845,33.4311068 14.432466,33.4916893 C14.1559612,33.8641165 13.8821748,34.2260583 13.6072233,34.5914951 L13.6072233,35.8415922 C13.6072233,35.924699 13.5392621,35.9953786 13.456932,35.9953786 C13.3734369,35.9953786 13.3023689,35.924699 13.3023689,35.8415922 L13.3023689,34.5914951 C13.032466,34.2260583 12.7567379,33.8641165 12.4864466,33.4916893 C12.4476117,33.4252816 12.4476117,33.3305243 12.5186796,33.2808155 C12.5850874,33.228 12.6813981,33.2423689 12.7283883,33.3111068 L13.456932,34.2881942 L14.1862524,33.3111068 C14.2351845,33.2423689 14.3307184,33.228 14.3971262,33.2808155 L14.4013981,33.2808155 Z" id="Fill-3" fill="#011C37"></path>
                <path d="M18.4953786,35.8456699 C18.4953786,35.9287767 18.4289709,36.0029515 18.3458641,36.0029515 L16.9400388,36.0029515 C16.8495534,36.0029515 16.7874175,35.9287767 16.7874175,35.8456699 L16.7874175,33.406835 C16.7874175,33.3140194 16.8495534,33.2503301 16.9400388,33.2503301 L18.3458641,33.2503301 C18.4289709,33.2503301 18.4953786,33.3140194 18.4953786,33.406835 C18.4953786,33.489165 18.4289709,33.5594563 18.3458641,33.5594563 L17.0914951,33.5594563 L17.0914951,34.3936311 L18.2584854,34.3936311 C18.3415922,34.3936311 18.4122718,34.4553786 18.4122718,34.5474175 C18.4122718,34.6309126 18.3415922,34.7004272 18.2584854,34.7004272 L17.0914951,34.7004272 L17.0914951,35.6911068 L18.3458641,35.6911068 C18.4289709,35.6911068 18.4953786,35.7610097 18.4953786,35.8456699" id="Fill-5" fill="#011C37"></path>
                <path d="M21.5536311,35.8572427 C21.5276117,35.1970485 21.5101359,34.8203495 21.4798447,34.143068 C21.2511068,34.7306408 21.015767,35.3170485 20.7870291,35.9011262 L20.7870291,35.8960777 C20.768,35.9589903 20.7101359,36.0032621 20.648,36.0032621 C20.576932,36.0032621 20.5194563,35.9632621 20.4980971,35.9050097 L19.8076117,34.143068 C19.7815922,34.7135534 19.7563495,35.2918058 19.7365437,35.8587961 C19.728,35.9372427 19.6526602,36.0032621 19.5683883,36.0032621 C19.4949903,35.9916117 19.4328544,35.912 19.4285825,35.8389903 C19.4596505,35.0448155 19.4992621,34.1877282 19.5307184,33.3982136 C19.5361553,33.3255922 19.5994563,33.272 19.6697476,33.2502524 C19.728,33.2432621 19.799068,33.2937476 19.824699,33.3516117 C20.1194563,34.088699 20.3528544,34.6801553 20.648,35.4253981 C20.920233,34.7329709 21.1928544,34.0424854 21.4650874,33.3516117 C21.4887767,33.2894757 21.5722718,33.2459806 21.6410097,33.2568544 C21.7031456,33.272 21.7520777,33.3255922 21.7563495,33.3982136 C21.7874175,34.1877282 21.8274175,35.0498641 21.8612039,35.8436505 C21.8612039,35.9201553 21.7971262,35.9916117 21.7206214,36.0032621 L21.7074175,36.0032621 C21.6258641,36.0032621 21.5571262,35.9337476 21.5536311,35.8572427" id="Fill-7" fill="#011C37"></path>
                <g id="Group-11" transform="translate(22.912621, 32.896544)">
                    <mask id="mask-2" fill="white">
                        <use xlink:href="#path-1"></use>
                    </mask>
                    <g id="Clip-10"></g>
                    <path d="M1.93401942,2.89945631 C1.97246602,2.9911068 1.88858252,3.10683495 1.79615534,3.10683495 C1.73052427,3.10683495 1.6641165,3.06256311 1.65091262,2.99615534 L1.65091262,2.99965049 C1.53673786,2.66178641 1.44469903,2.38450485 1.33401942,2.04586408 L0.648970874,2.04586408 C0.554990291,2.35926214 0.437320388,2.68780583 0.344116505,2.99965049 C0.313436893,3.07149515 0.221009709,3.11965049 0.151883495,3.09518447 C0.0711067961,3.07149515 0.0260582524,2.98450485 0.0501359223,2.90372816 L0.846252427,0.457902913 C0.872660194,0.388776699 0.92392233,0.349553398 0.990330097,0.349553398 C1.05479612,0.349553398 1.11926214,0.393048544 1.13906796,0.457902913 C1.40042718,1.2718835 1.66605825,2.09130097 1.93401942,2.89945631 L1.93401942,2.89596117 L1.93401942,2.89945631 C1.93401942,2.90372816 1.93751456,2.90372816 1.93751456,2.90372816 L1.93401942,2.89945631 Z M1.24275728,1.74178641 C1.14683495,1.46023301 1.09984466,1.31149515 0.990330097,0.991495146 C0.908,1.24664078 0.837708738,1.46256311 0.749941748,1.74178641 L1.24275728,1.74178641 Z" id="Fill-9" fill="#011C37" mask="url(#mask-2)"></path>
                </g>
                <g id="Group-14" transform="translate(25.631068, 32.896544)">
                    <mask id="mask-4" fill="white">
                        <use xlink:href="#path-3"></use>
                    </mask>
                    <g id="Clip-13"></g>
                    <path d="M1.964,2.89945631 C2.00283495,2.9911068 1.91700971,3.10683495 1.82652427,3.10683495 C1.75972816,3.10683495 1.69332039,3.06256311 1.68205825,2.99615534 L1.68205825,2.99965049 C1.56866019,2.66178641 1.47662136,2.38450485 1.36516505,2.04586408 L0.679728155,2.04586408 C0.584582524,2.35926214 0.467300971,2.68780583 0.37215534,2.99965049 C0.342640777,3.07149515 0.253320388,3.11965049 0.182640777,3.09518447 C0.103029126,3.07149515 0.056038835,2.98450485 0.0808932039,2.90372816 L0.877009709,0.457902913 C0.901087379,0.388776699 0.95623301,0.349553398 1.02302913,0.349553398 C1.0847767,0.349553398 1.15157282,0.393048544 1.16827184,0.457902913 C1.43196117,1.2718835 1.69720388,2.09130097 1.964,2.89945631 L1.964,2.89596117 L1.964,2.89945631 C1.964,2.90372816 1.96827184,2.90372816 1.96827184,2.90372816 L1.964,2.89945631 Z M1.27351456,1.74178641 C1.17681553,1.46023301 1.13176699,1.31149515 1.02302913,0.991495146 C0.938757282,1.24664078 0.870019417,1.46256311 0.781087379,1.74178641 L1.27351456,1.74178641 Z" id="Fill-12" fill="#011C37" mask="url(#mask-4)"></path>
                </g>
                <path d="M30.0104854,35.9418252 L30.015534,35.9460971 C29.6275728,35.5134757 29.2326214,35.0754175 28.8450485,34.6486214 C28.8058252,34.6000777 28.7980583,34.5379417 28.8198058,34.4851262 C28.8450485,34.4295922 28.8939806,34.3934757 28.9518447,34.3934757 L29.4038835,34.3934757 C29.6372816,34.3934757 29.8229126,34.2051262 29.8229126,33.9709515 C29.8229126,33.7422136 29.6372816,33.5596893 29.4038835,33.5596893 L28.7568932,33.5596893 L28.7568932,35.8459029 C28.7568932,35.9290097 28.6869903,36.0031845 28.6066019,36.0031845 C28.5149515,36.0031845 28.4528155,35.9290097 28.4528155,35.8459029 L28.4528155,33.407068 C28.4528155,33.3138641 28.5149515,33.2505631 28.6066019,33.2505631 L29.4038835,33.2505631 C29.8027184,33.2505631 30.1246602,33.5709515 30.1246602,33.9709515 C30.1246602,34.3763883 29.8027184,34.7006602 29.4038835,34.7006602 L29.2990291,34.7006602 C29.6147573,35.0501748 29.9273786,35.4008544 30.2442718,35.7484272 C30.2978641,35.8090097 30.2854369,35.904932 30.2271845,35.9635728 C30.1976699,35.9845437 30.1607767,36.0031845 30.1266019,36.0031845 C30.0862136,36.0031845 30.0349515,35.9756117 30.0104854,35.9418252" id="Fill-15" fill="#011C37"></path>
                <g id="Group-19" transform="translate(17.087379, 0.275184)">
                    <mask id="mask-6" fill="white">
                        <use xlink:href="#path-5"></use>
                    </mask>
                    <g id="Clip-18"></g>
                    <path d="M11.4573204,28.0122718 C5.20761165,28.0122718 0.126058252,22.926835 0.126058252,16.6806214 L0.126058252,0.113242718 L0.267805825,0.113242718 L0.267805825,16.6806214 C0.267805825,22.8483883 5.28838835,27.8685825 11.4573204,27.8685825 C17.6250874,27.8685825 22.6445049,22.8483883 22.6445049,16.6806214 L22.6445049,0.113242718 L22.7881942,0.113242718 L22.7881942,16.6806214 C22.7881942,22.926835 17.7050874,28.0122718 11.4573204,28.0122718" id="Fill-17" fill="#011C37" mask="url(#mask-6)"></path>
                </g>
                <path d="M26.8229126,28.2874563 C20.575534,28.2874563 15.4920388,23.2020194 15.4920388,16.9558058 L15.4920388,0.388427184 L15.6341748,0.388427184 L15.6341748,16.9558058 C15.6341748,23.1235728 20.6543689,28.143767 26.8229126,28.143767 C32.9918447,28.143767 38.0104854,23.1235728 38.0104854,16.9558058 L38.0104854,0.388427184 L38.1557282,0.388427184 L38.1557282,16.9558058 C38.1557282,23.2020194 33.0699029,28.2874563 26.8229126,28.2874563" id="Fill-20" fill="#011C37"></path>
                <path d="M25.1015146,28.2874563 C18.8537476,28.2874563 13.7702524,23.2020194 13.7702524,16.9558058 L13.7702524,0.388427184 L13.9139417,0.388427184 L13.9139417,16.9558058 C13.9139417,23.1235728 18.9325825,28.143767 25.1015146,28.143767 C31.2700583,28.143767 36.2902524,23.1235728 36.2902524,16.9558058 L36.2902524,0.388427184 L36.4323883,0.388427184 L36.4323883,16.9558058 C36.4323883,23.2020194 31.350835,28.2874563 25.1015146,28.2874563" id="Fill-22" fill="#011C37"></path>
                <path d="M23.3812427,28.2874563 C17.1319223,28.2874563 12.0495922,23.2020194 12.0495922,16.9558058 L12.0495922,0.388427184 L12.1932816,0.388427184 L12.1932816,16.9558058 C12.1932816,23.1235728 17.2111456,28.143767 23.3812427,28.143767 C29.5505631,28.143767 34.5684272,23.1235728 34.5684272,16.9558058 L34.5684272,0.388427184 L34.7109515,0.388427184 L34.7109515,16.9558058 C34.7109515,23.2020194 29.6290097,28.2874563 23.3812427,28.2874563" id="Fill-24" fill="#011C37"></path>
                <path d="M21.6583301,28.2874563 C15.4125049,28.2874563 10.3274563,23.2020194 10.3274563,16.9558058 L10.3274563,0.388427184 L10.4711456,0.388427184 L10.4711456,16.9558058 C10.4711456,23.1235728 15.4897864,28.143767 21.6583301,28.143767 C27.8280388,28.143767 32.8474563,23.1235728 32.8474563,16.9558058 L32.8474563,0.388427184 L32.991534,0.388427184 L32.991534,16.9558058 C32.991534,23.2020194 27.9060971,28.2874563 21.6583301,28.2874563" id="Fill-26" fill="#011C37"></path>
                <path d="M19.9380583,28.2874563 C13.6906796,28.2874563 8.60640777,23.2020194 8.60640777,16.9558058 L8.60640777,0.388427184 L8.74815534,0.388427184 L8.74815534,16.9558058 C8.74815534,23.1235728 13.7679612,28.143767 19.9380583,28.143767 C26.108932,28.143767 31.1256311,23.1235728 31.1256311,16.9558058 L31.1256311,0.388427184 L31.2700971,0.388427184 L31.2700971,16.9558058 C31.2700971,23.2020194 26.1858252,28.2874563 19.9380583,28.2874563" id="Fill-28" fill="#011C37"></path>
                <path d="M18.2166602,28.2874563 C11.9681165,28.2874563 6.88500971,23.2020194 6.88500971,16.9558058 L6.88500971,0.388427184 L7.02831068,0.388427184 L7.02831068,16.9558058 C7.02831068,23.1235728 12.0473398,28.143767 18.2166602,28.143767 C24.3871456,28.143767 29.4046214,23.1235728 29.4046214,16.9558058 L29.4046214,0.388427184 L29.5483107,0.388427184 L29.5483107,16.9558058 C29.5483107,23.2020194 24.4644272,28.2874563 18.2166602,28.2874563" id="Fill-30" fill="#011C37"></path>
                <path d="M16.4948738,28.2874563 C10.2482718,28.2874563 5.1632233,23.2020194 5.1632233,16.9558058 L5.1632233,0.388427184 L5.30691262,0.388427184 L5.30691262,16.9558058 C5.30691262,23.1235728 10.3271068,28.143767 16.4948738,28.143767 C22.6645825,28.143767 27.6843883,23.1235728 27.6843883,16.9558058 L27.6843883,0.388427184 L27.828466,0.388427184 L27.828466,16.9558058 C27.828466,23.2020194 22.7430291,28.2874563 16.4948738,28.2874563" id="Fill-32" fill="#011C37"></path>
                <path d="M14.7765049,28.2874563 C8.52718447,28.2874563 3.44291262,23.2020194 3.44291262,16.9558058 L3.44291262,0.388427184 L3.58699029,0.388427184 L3.58699029,16.9558058 C3.58699029,23.1235728 8.60524272,28.143767 14.7765049,28.143767 C20.9442718,28.143767 25.9617476,23.1235728 25.9617476,16.9558058 L25.9617476,0.388427184 L26.1066019,0.388427184 L26.1066019,16.9558058 C26.1066019,23.2020194 21.0223301,28.2874563 14.7765049,28.2874563" id="Fill-34" fill="#011C37"></path>
                <path d="M13.0539417,28.2874563 C6.80539806,28.2874563 1.72073786,23.2020194 1.72073786,16.9558058 L1.72073786,0.388427184 L1.86675728,0.388427184 L1.86675728,16.9558058 C1.86675728,23.1235728 6.88384466,28.143767 13.0539417,28.143767 C19.2236505,28.143767 24.2415146,23.1235728 24.2415146,16.9558058 L24.2415146,0.388427184 L24.3836505,0.388427184 L24.3836505,16.9558058 C24.3836505,23.2020194 19.3017087,28.2874563 13.0539417,28.2874563" id="Fill-36" fill="#011C37"></path>
                <g id="Group-40" transform="translate(0.000000, 0.275184)">
                    <mask id="mask-8" fill="white">
                        <use xlink:href="#path-7"></use>
                    </mask>
                    <g id="Clip-39"></g>
                    <path d="M11.3333204,28.0122718 C5.0855534,28.0122718 -0.00027184466,22.926835 -0.00027184466,16.6806214 L-0.00027184466,0.113242718 L0.143805825,0.113242718 L0.143805825,16.6806214 C0.143805825,22.8483883 5.1624466,27.8685825 11.3333204,27.8685825 C17.5018641,27.8685825 22.5185631,22.8483883 22.5185631,16.6806214 L22.5185631,0.113242718 L22.6641942,0.113242718 L22.6641942,16.6806214 C22.6641942,22.926835 17.5791456,28.0122718 11.3333204,28.0122718" id="Fill-38" fill="#011C37" mask="url(#mask-8)"></path>
                </g>
            </g>
        </g>
    </g>
</svg>